<svg id="visual" viewBox="0 0 900 600" width="900" height="600" xmlns="http://www.w3.org/2000/svg" xmlns:xlink="http://www.w3.org/1999/xlink" version="1.1"><path d="M0 19L15 24C30 29 60 39 90 42C120 45 150 41 180 39C210 37 240 37 270 35C300 33 330 29 360 28C390 27 420 29 450 29C480 29 510 27 540 25C570 23 600 21 630 21C660 21 690 23 720 23C750 23 780 21 810 25C840 29 870 39 885 44L900 49L900 0L885 0C870 0 840 0 810 0C780 0 750 0 720 0C690 0 660 0 630 0C600 0 570 0 540 0C510 0 480 0 450 0C420 0 390 0 360 0C330 0 300 0 270 0C240 0 210 0 180 0C150 0 120 0 90 0C60 0 30 0 15 0L0 0Z" fill="#78aeff"></path><path d="M0 97L15 102C30 107 60 117 90 112C120 107 150 87 180 84C210 81 240 95 270 98C300 101 330 93 360 86C390 79 420 73 450 69C480 65 510 63 540 62C570 61 600 61 630 60C660 59 690 57 720 66C750 75 780 95 810 110C840 125 870 135 885 140L900 145L900 47L885 42C870 37 840 27 810 23C780 19 750 21 720 21C690 21 660 19 630 19C600 19 570 21 540 23C510 25 480 27 450 27C420 27 390 25 360 26C330 27 300 31 270 33C240 35 210 35 180 37C150 39 120 43 90 40C60 37 30 27 15 22L0 17Z" fill="#6aa2fc"></path><path d="M0 145L15 149C30 153 60 161 90 152C120 143 150 117 180 111C210 105 240 119 270 127C300 135 330 137 360 134C390 131 420 123 450 117C480 111 510 107 540 109C570 111 600 119 630 115C660 111 690 95 720 104C750 113 780 147 810 165C840 183 870 185 885 186L900 187L900 143L885 138C870 133 840 123 810 108C780 93 750 73 720 64C690 55 660 57 630 58C600 59 570 59 540 60C510 61 480 63 450 67C420 71 390 77 360 84C330 91 300 99 270 96C240 93 210 79 180 82C150 85 120 105 90 110C60 115 30 105 15 100L0 95Z" fill="#5d97f9"></path><path d="M0 307L15 296C30 285 60 263 90 243C120 223 150 205 180 205C210 205 240 223 270 234C300 245 330 249 360 243C390 237 420 221 450 213C480 205 510 205 540 215C570 225 600 245 630 245C660 245 690 225 720 232C750 239 780 273 810 297C840 321 870 335 885 342L900 349L900 185L885 184C870 183 840 181 810 163C780 145 750 111 720 102C690 93 660 109 630 113C600 117 570 109 540 107C510 105 480 109 450 115C420 121 390 129 360 132C330 135 300 133 270 125C240 117 210 103 180 109C150 115 120 141 90 150C60 159 30 151 15 147L0 143Z" fill="#518bf6"></path><path d="M0 409L15 408C30 407 60 405 90 405C120 405 150 407 180 395C210 383 240 357 270 359C300 361 330 391 360 404C390 417 420 413 450 397C480 381 510 353 540 355C570 357 600 389 630 404C660 419 690 417 720 412C750 407 780 399 810 405C840 411 870 431 885 441L900 451L900 347L885 340C870 333 840 319 810 295C780 271 750 237 720 230C690 223 660 243 630 243C600 243 570 223 540 213C510 203 480 203 450 211C420 219 390 235 360 241C330 247 300 243 270 232C240 221 210 203 180 203C150 203 120 221 90 241C60 261 30 283 15 294L0 305Z" fill="#457ff2"></path><path d="M0 427L15 430C30 433 60 439 90 441C120 443 150 441 180 427C210 413 240 387 270 392C300 397 330 433 360 444C390 455 420 441 450 425C480 409 510 391 540 398C570 405 600 437 630 451C660 465 690 461 720 454C750 447 780 437 810 442C840 447 870 467 885 477L900 487L900 449L885 439C870 429 840 409 810 403C780 397 750 405 720 410C690 415 660 417 630 402C600 387 570 355 540 353C510 351 480 379 450 395C420 411 390 415 360 402C330 389 300 359 270 357C240 355 210 381 180 393C150 405 120 403 90 403C60 403 30 405 15 406L0 407Z" fill="#3b73ee"></path><path d="M0 463L15 469C30 475 60 487 90 486C120 485 150 471 180 457C210 443 240 429 270 437C300 445 330 475 360 482C390 489 420 473 450 457C480 441 510 425 540 431C570 437 600 465 630 480C660 495 690 497 720 489C750 481 780 463 810 464C840 465 870 485 885 495L900 505L900 485L885 475C870 465 840 445 810 440C780 435 750 445 720 452C690 459 660 463 630 449C600 435 570 403 540 396C510 389 480 407 450 423C420 439 390 453 360 442C330 431 300 395 270 390C240 385 210 411 180 425C150 439 120 441 90 439C60 437 30 431 15 428L0 425Z" fill="#3366e8"></path><path d="M0 487L15 493C30 499 60 511 90 517C120 523 150 523 180 515C210 507 240 491 270 492C300 493 330 511 360 517C390 523 420 517 450 509C480 501 510 491 540 496C570 501 600 521 630 529C660 537 690 533 720 521C750 509 780 489 810 489C840 489 870 509 885 519L900 529L900 503L885 493C870 483 840 463 810 462C780 461 750 479 720 487C690 495 660 493 630 478C600 463 570 435 540 429C510 423 480 439 450 455C420 471 390 487 360 480C330 473 300 443 270 435C240 427 210 441 180 455C150 469 120 483 90 484C60 485 30 473 15 467L0 461Z" fill="#2e59e3"></path><path d="M0 523L15 526C30 529 60 535 90 537C120 539 150 537 180 529C210 521 240 507 270 508C300 509 330 525 360 532C390 539 420 537 450 531C480 525 510 515 540 519C570 523 600 541 630 550C660 559 690 559 720 548C750 537 780 515 810 513C840 511 870 529 885 538L900 547L900 527L885 517C870 507 840 487 810 487C780 487 750 507 720 519C690 531 660 535 630 527C600 519 570 499 540 494C510 489 480 499 450 507C420 515 390 521 360 515C330 509 300 491 270 490C240 489 210 505 180 513C150 521 120 521 90 515C60 509 30 497 15 491L0 485Z" fill="#2b4cdc"></path><path d="M0 601L15 601C30 601 60 601 90 601C120 601 150 601 180 601C210 601 240 601 270 601C300 601 330 601 360 601C390 601 420 601 450 601C480 601 510 601 540 601C570 601 600 601 630 601C660 601 690 601 720 601C750 601 780 601 810 601C840 601 870 601 885 601L900 601L900 545L885 536C870 527 840 509 810 511C780 513 750 535 720 546C690 557 660 557 630 548C600 539 570 521 540 517C510 513 480 523 450 529C420 535 390 537 360 530C330 523 300 507 270 506C240 505 210 519 180 527C150 535 120 537 90 535C60 533 30 527 15 524L0 521Z" fill="#2b3dd5"></path></svg>